<svg xmlns="http://www.w3.org/2000/svg" xmlns:xlink="http://www.w3.org/1999/xlink" width="500" zoomAndPan="magnify" viewBox="0 0 375 374.999991" height="500" preserveAspectRatio="xMidYMid meet" version="1.0"><defs><clipPath id="adbe2a47e0"><path d="M 31.21875 181 L 85 181 L 85 203 L 31.21875 203 Z M 31.21875 181 " clip-rule="nonzero"/></clipPath><clipPath id="76c68840f6"><path d="M 206 94 L 343.96875 94 L 343.96875 281.949219 L 206 281.949219 Z M 206 94 " clip-rule="nonzero"/></clipPath><clipPath id="31693e0da1"><path d="M 102 92.949219 L 316 92.949219 L 316 273 L 102 273 Z M 102 92.949219 " clip-rule="nonzero"/></clipPath></defs><rect x="-37.5" width="450" fill="#ffffff" y="-37.499999" height="449.999989" fill-opacity="1"/><rect x="-37.5" width="450" fill="#ffffff" y="-37.499999" height="449.999989" fill-opacity="1"/><g clip-path="url(#adbe2a47e0)"><path fill="#5ab334" d="M 84.773438 192.011719 C 84.773438 186.355469 80.183594 181.769531 74.519531 181.769531 L 41.476562 181.769531 C 35.8125 181.769531 31.222656 186.355469 31.222656 192.011719 C 31.222656 197.671875 35.8125 202.257812 41.476562 202.257812 L 74.519531 202.257812 C 80.183594 202.257812 84.773438 197.671875 84.773438 192.011719 " fill-opacity="1" fill-rule="nonzero"/></g><path fill="#5ab334" d="M 107.527344 222.742188 L 88.324219 222.742188 C 82.660156 222.742188 78.070312 227.328125 78.070312 232.988281 C 78.070312 238.644531 82.660156 243.230469 88.324219 243.230469 L 107.527344 243.230469 C 113.191406 243.230469 117.78125 238.644531 117.78125 232.988281 C 117.78125 227.328125 113.191406 222.742188 107.527344 222.742188 " fill-opacity="1" fill-rule="nonzero"/><g clip-path="url(#76c68840f6)"><path fill="#81cc2a" d="M 264.445312 94.179688 C 307.808594 116.777344 327.160156 169.261719 307.699219 214.992188 C 290.394531 255.644531 247.964844 277.9375 206.175781 271.488281 C 219.128906 278.15625 233.820312 281.914062 249.390625 281.914062 C 301.621094 281.914062 343.957031 239.621094 343.957031 187.449219 C 343.957031 140.394531 309.519531 101.382812 264.445312 94.179688 " fill-opacity="1" fill-rule="nonzero"/></g><g clip-path="url(#31693e0da1)"><path fill="#5ab334" d="M 242.941406 195.804688 C 224.28125 189.539062 211.554688 180.828125 211.554688 163.9375 C 211.554688 148.609375 222.363281 136.589844 241.023438 132.933594 L 241.023438 116.382812 L 258.109375 116.382812 L 258.109375 131.714844 C 269.792969 132.234375 277.640625 134.671875 283.394531 137.460938 L 278.339844 157.144531 C 273.804688 155.226562 265.78125 151.21875 253.226562 151.21875 C 241.890625 151.21875 238.230469 156.097656 238.230469 160.972656 C 238.230469 166.71875 244.335938 170.378906 259.15625 175.953125 C 279.90625 183.269531 288.273438 192.847656 288.273438 208.527344 C 288.273438 224.027344 277.289062 237.265625 257.238281 240.746094 L 257.238281 258.511719 L 240.152344 258.511719 L 240.152344 241.964844 C 228.46875 241.441406 217.136719 238.308594 210.507812 234.472656 L 215.738281 214.101562 C 223.0625 218.101562 233.351562 221.761719 244.683594 221.761719 C 254.621094 221.761719 261.421875 217.929688 261.421875 210.960938 C 261.421875 204.34375 255.84375 200.164062 242.941406 195.804688 Z M 307.699219 214.992188 C 327.160156 169.261719 307.808594 116.777344 264.445312 94.179688 C 259.542969 93.398438 254.515625 92.984375 249.390625 92.984375 C 223.453125 92.984375 199.96875 103.421875 182.886719 120.3125 L 194.648438 120.3125 C 200.308594 120.3125 204.898438 124.898438 204.898438 130.554688 C 204.898438 136.214844 200.308594 140.796875 194.648438 140.796875 L 134.21875 140.796875 C 128.554688 140.796875 123.964844 145.382812 123.964844 151.039062 C 123.964844 156.699219 128.554688 161.285156 134.21875 161.285156 L 173.644531 161.285156 C 179.308594 161.285156 183.898438 165.871094 183.898438 171.527344 C 183.898438 177.183594 179.308594 181.769531 173.644531 181.769531 L 113.214844 181.769531 C 107.550781 181.769531 102.960938 186.355469 102.960938 192.011719 C 102.960938 197.671875 107.550781 202.257812 113.214844 202.257812 L 184.4375 202.257812 C 190.101562 202.257812 194.695312 206.84375 194.695312 212.5 C 194.695312 218.15625 190.101562 222.742188 184.4375 222.742188 L 140.601562 222.742188 C 134.9375 222.742188 130.347656 227.328125 130.347656 232.988281 C 130.347656 238.644531 134.9375 243.230469 140.601562 243.230469 L 173.070312 243.230469 C 181.726562 255.027344 193.0625 264.746094 206.175781 271.488281 C 247.964844 277.9375 290.394531 255.644531 307.699219 214.992188 " fill-opacity="1" fill-rule="nonzero"/></g></svg>